<?xml version="1.0" encoding="utf-8"?><svg xmlns="http://www.w3.org/2000/svg" xmlns:xlink="http://www.w3.org/1999/xlink"><symbol viewBox="0 0 11 28" id="angle-left" xmlns="http://www.w3.org/2000/svg"><path d="M9.797 8.5q0 .203-.156.359L3.5 15l6.141 6.141q.156.156.156.359t-.156.359l-.781.781q-.156.156-.359.156t-.359-.156L.861 15.359Q.705 15.203.705 15t.156-.359L8.142 7.36q.156-.156.359-.156t.359.156l.781.781q.156.156.156.359z"/></symbol><symbol viewBox="0 0 10 28" id="angle-right" xmlns="http://www.w3.org/2000/svg"><path d="M9.297 15q0 .203-.156.359L1.86 22.64q-.156.156-.359.156t-.359-.156l-.781-.781q-.156-.156-.156-.359t.156-.359L6.502 15 .361 8.859Q.205 8.703.205 8.5t.156-.359l.781-.781q.156-.156.359-.156t.359.156l7.281 7.281q.156.156.156.359z"/></symbol><symbol viewBox="0 0 28 28" id="circle-o-notch" xmlns="http://www.w3.org/2000/svg"><path d="M27.5 14q0 2.75-1.07 5.25t-2.875 4.305-4.305 2.875T14 27.5t-5.25-1.07-4.305-2.875T1.57 19.25.5 14q0-3.328 1.516-6.227T6.157 3 12.001.641v3.563q-3.453.703-5.727 3.453t-2.273 6.344q0 2.031.797 3.883t2.133 3.187 3.187 2.133 3.883.797 3.883-.797 3.187-2.133 2.133-3.187.797-3.883q0-3.594-2.273-6.344t-5.727-3.453V.641Q19.22 1.125 21.845 3t4.141 4.773T27.502 14z"/></symbol><symbol viewBox="0 0 28 28" id="clipboard" xmlns="http://www.w3.org/2000/svg"><path d="M12 26h14V16h-6.5q-.625 0-1.062-.438T18 14.5V8h-6v18zm4-22.5v-1q0-.203-.148-.352T15.5 2h-11q-.203 0-.352.148T4 2.5v1q0 .203.148.352T4.5 4h11q.203 0 .352-.148T16 3.5zM20 14h4.672L20 9.328V14zm8 2v10.5q0 .625-.438 1.062T26.5 28h-15q-.625 0-1.062-.438T10 26.5V24H1.5q-.625 0-1.062-.438T0 22.5v-21Q0 .875.438.438T1.5 0h17q.625 0 1.062.438T20 1.5v5.125q.328.203.562.437l6.375 6.375q.438.438.75 1.188T28 16z"/></symbol><symbol viewBox="0 0 17 17" id="close" xmlns="http://www.w3.org/2000/svg"><g transform="translate(-1 -1)" fill-rule="evenodd"><rect transform="rotate(45 9.392 9.397)" x="-1.483" y="8.397" width="21.75" height="2" rx="1"/><rect transform="rotate(-45 9.392 9.397)" x="-1.546" y="8.283" width="21.874" height="2.228" rx="1"/></g></symbol><symbol viewBox="0 0 27.039 5.153" id="eightshapes-logo" xmlns="http://www.w3.org/2000/svg"><path d="M8.268 3.816c-.154.056-.33.142-.689.142-.775 0-1.131-.472-1.131-1.183 0-.647.406-1.106 1.023-1.106.729 0 .965.532.965 1.235H6.875c0 .432.339.728.72.728.267 0 .574-.137.673-.219v.403zm-.261-1.212c0-.334-.197-.609-.544-.609-.395 0-.558.326-.588.609h1.132zm1.145-1.372h-.455V.778h.455v.454zm-.427.488h.402v2.186h-.402V1.72zm2.769 2.092c0 .665-.343 1.047-1.127 1.047-.231 0-.433-.03-.785-.15l.044-.374c.309.143.493.198.788.198.424 0 .678-.288.678-.75v-.216h-.009c-.171.227-.454.339-.733.339-.625 0-.934-.51-.934-1.076 0-.562.316-1.162.977-1.162.387 0 .601.142.721.377h.008V1.72h.373v2.092zm-.402-.973c0-.454-.21-.844-.639-.844-.407 0-.609.442-.609.814 0 .412.232.771.609.771s.639-.334.639-.741zm.702-2.147h.402v1.342h.009c.146-.231.398-.365.703-.365.565 0 .818.352.818.938v1.299h-.402V2.775c0-.51-.111-.759-.463-.78-.459 0-.665.369-.665.9v1.012h-.402V.692zm3.477 1.354h-.578v1.195c0 .253.153.39.338.39a.488.488 0 00.273-.077v.343c-.09.026-.214.061-.342.061-.416 0-.674-.197-.674-.634V2.046h-.492V1.72h.492v-.505l.404-.129v.634h.578v.326zm.214 1.432c.158.103.386.154.502.154.184 0 .41-.077.41-.313 0-.398-.946-.364-.946-.977 0-.455.338-.673.771-.673.188 0 .343.039.501.086l-.034.352a1.172 1.172 0 00-.424-.112c-.206 0-.387.086-.387.266 0 .446.948.317.948 1.015 0 .467-.374.682-.764.682-.206 0-.415-.022-.6-.12l.023-.36zM17.013.692h.402v1.342h.009c.146-.231.399-.365.703-.365.565 0 .818.352.818.938v1.299h-.403V2.775c0-.51-.11-.759-.462-.78-.459 0-.665.369-.665.9v1.012h-.402V.692zm2.39 1.183c.202-.12.442-.206.72-.206.627 0 .879.309.879.904v.904c0 .248.009.364.018.429h-.378v-.283h-.008a.812.812 0 01-.678.335c-.471 0-.801-.206-.801-.682 0-.548.6-.72 1.015-.72.159 0 .271 0 .43.009 0-.377-.138-.57-.54-.57a1.03 1.03 0 00-.635.223l-.022-.343zm1.197.99c-.086 0-.172-.008-.258-.008-.219 0-.758.034-.758.419 0 .232.222.356.406.356.399 0 .609-.249.609-.574v-.193zm.698-1.145h.386v.309h.008c.106-.163.356-.36.741-.36.634 0 .943.519.943 1.106 0 .6-.279 1.183-.938 1.183-.386 0-.605-.15-.729-.352H21.7v1.2h-.402V1.72zm1.05.275c-.438 0-.647.416-.647.823 0 .364.188.814.643.814.434 0 .613-.484.604-.827.008-.394-.164-.81-.6-.81zm2.997 1.821c-.154.056-.33.142-.69.142-.776 0-1.132-.472-1.132-1.183 0-.647.408-1.106 1.024-1.106.729 0 .964.532.964 1.235h-1.559c0 .432.338.728.72.728.265 0 .574-.137.673-.219v.403zm-.262-1.212c0-.334-.197-.609-.545-.609-.394 0-.557.326-.586.609h1.131zm.615.874c.158.103.385.154.501.154.184 0 .411-.077.411-.313 0-.398-.947-.364-.947-.977 0-.455.34-.673.771-.673.188 0 .343.039.502.086l-.035.352a1.167 1.167 0 00-.424-.112c-.205 0-.385.086-.385.266 0 .446.946.317.946 1.015 0 .467-.372.682-.763.682-.206 0-.416-.022-.601-.12l.024-.36zM1.393 3.396c.06.06.06.157 0 .217l-.565.566a.153.153 0 01-.218 0l-.565-.566a.153.153 0 010-.217l.565-.565a.155.155 0 01.218 0l.565.565zm.93.93c.06.06.06.156 0 .216l-.566.566a.153.153 0 01-.217 0l-.565-.566a.152.152 0 010-.216l.565-.566c.06-.06.157-.06.217 0l.566.566zM1.756 3.25a.153.153 0 01-.217 0l-.565-.565a.153.153 0 010-.217l.565-.566c.06-.06.157-.06.217 0l.566.566c.06.06.06.157 0 .217l-.566.565zm-.928-.928a.153.153 0 01-.217 0l-.566-.565a.153.153 0 010-.217L.61.975c.06-.06.157-.06.217 0l.567.565c.06.06.06.157 0 .217l-.566.565zm2.786 2.786a.153.153 0 01-.217 0L1.903 3.614a.155.155 0 010-.218l.566-.565c.06-.06.157-.06.217 0L4.18 4.325c.06.061.06.157 0 .217l-.566.566zm.928-.929a.152.152 0 01-.217 0L1.902 1.756a.153.153 0 010-.217l.566-.565c.06-.06.157-.06.217 0l2.422 2.422c.06.06.06.157 0 .217l-.565.566zM1.756 1.394a.153.153 0 01-.217 0L.974.828a.153.153 0 010-.217L1.54.045c.06-.06.157-.06.217 0l.566.566c.06.06.06.157 0 .217l-.567.566zm2.786.928a.153.153 0 01-.217 0L2.831.828a.153.153 0 010-.217l.565-.565c.06-.06.157-.06.217 0L5.107 1.54c.06.06.06.157 0 .217l-.565.565z"/></symbol><symbol viewBox="0 0 28 28" id="eightshapes-mark" xmlns="http://www.w3.org/2000/svg"><path d="M7.642 18.404a.825.825 0 010 1.168L4.604 22.61a.824.824 0 01-1.17 0L.398 19.572a.825.825 0 010-1.168l3.036-3.039a.835.835 0 011.17 0l3.038 3.039zm4.997 4.999a.817.817 0 010 1.161l-3.041 3.043a.826.826 0 01-1.166 0l-3.039-3.043a.817.817 0 010-1.161l3.039-3.043a.828.828 0 011.166 0l3.041 3.043zm-3.047-5.78a.823.823 0 01-1.165 0l-3.04-3.042a.821.821 0 010-1.165l3.04-3.042a.821.821 0 011.165 0l3.042 3.042a.823.823 0 010 1.165l-3.042 3.042zm-4.986-4.989a.825.825 0 01-1.168 0L.399 9.595a.825.825 0 010-1.168l3.039-3.039a.825.825 0 011.168 0l3.039 3.039a.825.825 0 010 1.168l-3.039 3.039zM19.58 27.607a.83.83 0 01-1.169 0l-8.029-8.029a.827.827 0 010-1.17l3.042-3.04a.827.827 0 011.165 0l8.031 8.03a.82.82 0 010 1.166l-3.04 3.043zm4.986-4.997a.82.82 0 01-1.166 0L10.377 9.593a.825.825 0 010-1.168l3.041-3.039a.825.825 0 011.168 0l13.019 13.018a.83.83 0 010 1.168l-3.039 3.038zM9.594 7.645a.821.821 0 01-1.165 0L5.391 4.604a.823.823 0 010-1.166L8.43.397a.821.821 0 011.165 0l3.042 3.041a.823.823 0 010 1.166L9.594 7.645zm14.972 4.986a.823.823 0 01-1.166 0l-8.032-8.03a.824.824 0 010-1.167L18.406.395a.826.826 0 011.169 0l8.029 8.03a.83.83 0 010 1.168l-3.038 3.038z"/></symbol><symbol viewBox="0 0 204.89 75.17" id="equalizedigital-logo" xmlns="http://www.w3.org/2000/svg"><g data-name="Layer 2"><g data-name="Layer 1"><path class="hcls-1" d="M0 28.92V1.74h18.65v5.43H6v5.36h10.38V18H6v5.51h12.65v5.44zm20.73-10.19a10 10 0 01.88-4.19A11.27 11.27 0 0124 11.1a11.31 11.31 0 017.93-3.17 11.26 11.26 0 014.36.85 11.12 11.12 0 013.57 2.32 11.44 11.44 0 012.4 3.44 10 10 0 01.88 4.19v17h-5.65v-8.47A8.31 8.31 0 0135 28.92a7.71 7.71 0 01-3 .6 11.18 11.18 0 01-10.33-6.6 10.09 10.09 0 01-.94-4.19zm5.66 0a5.45 5.45 0 00.45 2.2 5.81 5.81 0 001.21 1.8 6 6 0 001.79 1.21 5.65 5.65 0 004.42 0 6 6 0 001.79-1.21 5.65 5.65 0 001.21-1.8 5.51 5.51 0 000-4.41 5.6 5.6 0 00-3-3 5.54 5.54 0 00-4.42 0 5.74 5.74 0 00-1.79 1.2 5.93 5.93 0 00-1.21 1.8 5.49 5.49 0 00-.45 2.21zm35.07-10.2h5.67v10.2a11.88 11.88 0 01-.74 4.19 10.26 10.26 0 01-2.1 3.43A9.69 9.69 0 0161 28.67a11 11 0 01-8.5 0 9.69 9.69 0 01-3.26-2.32 10.26 10.26 0 01-2.1-3.43 11.87 11.87 0 01-.73-4.19V8.53h5.69v10.2a8.24 8.24 0 00.28 2.2 5.11 5.11 0 00.87 1.8 4.46 4.46 0 001.47 1.21 4.94 4.94 0 004.12 0 4.46 4.46 0 001.47-1.21 5.11 5.11 0 00.87-1.8 8.24 8.24 0 00.28-2.2zm19.33-.6a11.41 11.41 0 017.93 3.17 11.1 11.1 0 012.4 3.44 10 10 0 01.88 4.19v10.19h-5.28v-2.53a7.2 7.2 0 01-2.53 2.28 6.89 6.89 0 01-3.4.85 11.14 11.14 0 01-10.32-6.6 10.31 10.31 0 010-8.38 11.21 11.21 0 0110.32-6.61zm.12 16.46a5.45 5.45 0 002.2-.45 5.64 5.64 0 003-3 5.63 5.63 0 000-4.41 6.12 6.12 0 00-1.21-1.8 5.79 5.79 0 00-1.8-1.2 5.51 5.51 0 00-4.41 0 5.79 5.79 0 00-1.8 1.2 5.91 5.91 0 00-1.2 1.8 5.51 5.51 0 000 4.41 5.79 5.79 0 001.2 1.8 6 6 0 001.8 1.21 5.46 5.46 0 002.22.44zM95.59 1.74h5.66v27.18h-5.66zM108.2 0a3.17 3.17 0 011.27.26 3.49 3.49 0 011 .7 3.46 3.46 0 01.69 1 3 3 0 01.27 1.27 3 3 0 01-.27 1.26 3.7 3.7 0 01-.69 1 3.15 3.15 0 01-1 .7 3.34 3.34 0 01-1.27.24 3.13 3.13 0 01-2.3-.94 3.13 3.13 0 01-.94-2.3A3.3 3.3 0 01105.2 2a3 3 0 01.7-1 3.73 3.73 0 011-.7 3.12 3.12 0 011.3-.3zm-2.83 8.53H111v20.39h-5.66zm8.91 0h16.42v4.08l-9.55 11.48h9.55v4.83H114v-4.08l9.55-11.48h-9.29zm29.26-.6a11.52 11.52 0 014.42.85 11.26 11.26 0 013.6 2.32 11 11 0 012.44 3.44 10 10 0 01.89 4.19 8 8 0 01-.06 1c0 .31-.08.63-.13 1h-16.48a5.91 5.91 0 002.05 2.66 5.43 5.43 0 003.27 1 5.34 5.34 0 002.53-.61A5.62 5.62 0 00148 22.2h6.27a10.76 10.76 0 01-4.06 5.27 12.29 12.29 0 01-3.12 1.53 11.66 11.66 0 01-3.55.54 11.52 11.52 0 01-4.42-.85 11.26 11.26 0 01-3.6-2.32 11 11 0 01-2.42-3.43 10.31 10.31 0 010-8.38 11 11 0 012.42-3.44 11.26 11.26 0 013.6-2.32 11.52 11.52 0 014.42-.87zm5.32 8.79a5.92 5.92 0 00-2.07-2.63 5.67 5.67 0 00-6.52 0 5.88 5.88 0 00-2.05 2.63zM25.33 53.09a14.37 14.37 0 01-1 5.43 12.43 12.43 0 01-2.85 4.31A13 13 0 0117 65.66a16.78 16.78 0 01-6 1H0V39.49h11a16.11 16.11 0 015.85 1 13.6 13.6 0 014.53 2.83 13 13 0 013 4.31 13.85 13.85 0 01.95 5.46zm-14.16 8.15a7.82 7.82 0 003.18-.64 8.21 8.21 0 002.58-1.76 8.38 8.38 0 001.76-2.58 8.2 8.2 0 000-6.35 8.41 8.41 0 00-4.34-4.34 7.82 7.82 0 00-3.18-.64H6v16.31zm21.11-23.48a3.12 3.12 0 011.26.26 3.49 3.49 0 011 .7 3.31 3.31 0 01.7 1 3.1 3.1 0 010 2.53 3.66 3.66 0 01-.7 1 3.15 3.15 0 01-1 .7 3.29 3.29 0 01-1.26.24 3.26 3.26 0 01-3-4.51 2.86 2.86 0 01.7-1 3.68 3.68 0 011-.7 3.21 3.21 0 011.3-.22zm-2.83 8.53h5.66v20.39h-5.66zm19.86-.6a11.29 11.29 0 014.36.85 11.09 11.09 0 016 5.75 10.1 10.1 0 01.89 4.19v7.89a10.18 10.18 0 01-.87 4.19A10.88 10.88 0 0157.27 72a11 11 0 01-3.57 2.32 11.66 11.66 0 01-7.91.3 11.27 11.27 0 01-5.54-3.88 9.12 9.12 0 01-1.55-3h6.19a5.37 5.37 0 001.9 1.71 5.18 5.18 0 002.52.63 5.3 5.3 0 002.11-.42 5.46 5.46 0 001.72-1.15 5.58 5.58 0 001.17-1.72 6.16 6.16 0 00.51-2.11v-.08a7.41 7.41 0 01-2.4 2 6.52 6.52 0 01-3.11.74 11.21 11.21 0 01-4.38-.85 11.09 11.09 0 01-6-5.76 10.31 10.31 0 010-8.38 11.11 11.11 0 016-5.75 11.21 11.21 0 014.38-.91zm-5.55 10.79a5.49 5.49 0 00.45 2.21 5.6 5.6 0 003 3 5.54 5.54 0 004.42 0 5.74 5.74 0 001.79-1.2 5.93 5.93 0 001.21-1.8 5.65 5.65 0 000-4.42 5.69 5.69 0 00-3-3 5.65 5.65 0 00-4.42 0 6 6 0 00-1.79 1.21 5.71 5.71 0 00-1.21 1.79 5.53 5.53 0 00-.45 2.21zm23.33-18.72a3.12 3.12 0 011.26.26 3.38 3.38 0 011.72 1.72 3.21 3.21 0 010 2.53 3.88 3.88 0 01-.7 1 3.15 3.15 0 01-1 .7 3.29 3.29 0 01-1.26.24 3.1 3.1 0 01-2.3-.94 3.29 3.29 0 01-.7-3.57 2.86 2.86 0 01.7-1 3.68 3.68 0 011-.7 3.17 3.17 0 011.28-.24zm-2.83 8.53h5.66v20.39h-5.66zm15.32 0h5.67v4.83h-5.67v5.36a5.5 5.5 0 00.42 2.21 5.6 5.6 0 003 3 5.34 5.34 0 002.21.46v5.13h-.76a10.48 10.48 0 01-4.28-.85 10 10 0 01-3.34-2.32 10.32 10.32 0 01-2.17-3.44 11.19 11.19 0 01-.78-4.19v-17h5.66zm19.33-.6a11.22 11.22 0 014.36.85 10.91 10.91 0 013.57 2.32 11.05 11.05 0 012.4 3.43 10.1 10.1 0 01.89 4.19v10.2h-5.29v-2.53a7.21 7.21 0 01-2.53 2.28 6.89 6.89 0 01-3.4.85 11.17 11.17 0 01-10.32-6.61 10.31 10.31 0 010-8.38 11.24 11.24 0 0110.32-6.6zM99 62.15a5.37 5.37 0 002.21-.46 5.74 5.74 0 001.79-1.2 5.93 5.93 0 001.21-1.8 5.65 5.65 0 000-4.42 5.69 5.69 0 00-3-3 5.65 5.65 0 00-4.42 0A6 6 0 0095 52.48a5.71 5.71 0 00-1.21 1.79 5.54 5.54 0 000 4.42 5.6 5.6 0 003 3 5.34 5.34 0 002.21.46zm14.71-22.66h5.67v27.19h-5.67z"/><path class="hcls-2" d="M132.95 53.34h71.95v13.33h-71.95z"/><path class="hcls-3" d="M139.3 57.66v1.16h-1.44v4.36h-1.39v-4.36h-.84v-1.16h.84v-.5a2.12 2.12 0 01.27-1.09 1.81 1.81 0 01.71-.69 2 2 0 011-.24 1.88 1.88 0 01.61.08 1.77 1.77 0 01.46.2v1.16a1.53 1.53 0 00-.83-.2.79.79 0 00-.56.21.85.85 0 00-.23.66v.41zm3.7-.15a2.9 2.9 0 011.48.39 3.19 3.19 0 011.04 1.1 2.83 2.83 0 01.41 1.49 2.73 2.73 0 01-.41 1.47 3.19 3.19 0 01-1.08 1.04 3 3 0 01-2.95 0 3 3 0 01-1.08-1.05 2.73 2.73 0 01-.4-1.47 2.82 2.82 0 01.4-1.49 3 3 0 011.08-1.05 2.89 2.89 0 011.51-.43zm0 1.35a1.42 1.42 0 00-.73.19 1.31 1.31 0 00-.54.53 1.66 1.66 0 00-.21.86 1.62 1.62 0 00.21.85 1.31 1.31 0 00.54.53 1.52 1.52 0 00.73.18 1.59 1.59 0 00.74-.18 1.44 1.44 0 00.54-.53 1.62 1.62 0 00.21-.85 1.66 1.66 0 00-.21-.86 1.44 1.44 0 00-.54-.53 1.48 1.48 0 00-.74-.19zm7.72.35A1.49 1.49 0 00150 59a1.09 1.09 0 00-.8.32 2.89 2.89 0 00-.56.77v3.08h-1.39v-5.51h1.39v1a3.07 3.07 0 01.67-.82 1.35 1.35 0 01.89-.33 1.32 1.32 0 01.53.1zm6.78-1.7a2.68 2.68 0 011.39.35 2.4 2.4 0 01.9 1 3.13 3.13 0 01.31 1.43v.59h-4a1.46 1.46 0 00.54.9 1.7 1.7 0 001.08.34 2.45 2.45 0 001.09-.24 4.18 4.18 0 00.79-.49v1.29a3.33 3.33 0 01-.78.46 2.72 2.72 0 01-1.15.24 3.1 3.1 0 01-1.49-.37 2.84 2.84 0 01-1.07-1 2.71 2.71 0 01-.4-1.48 3.09 3.09 0 01.36-1.48 3 3 0 011-1.08 2.67 2.67 0 011.43-.46zm0 1.22a1.24 1.24 0 00-.86.32 1.66 1.66 0 00-.48.85h2.65a1.15 1.15 0 00-.44-.88 1.44 1.44 0 00-.91-.29zm9.21-1.07l-2.61 5.52h-.89l-2.58-5.52h1.62l1.39 3.42 1.45-3.42zm3.11-.15a2.72 2.72 0 011.4.35 2.4 2.4 0 01.9 1 3.27 3.27 0 01.31 1.43v.59h-4a1.47 1.47 0 00.55.9 1.67 1.67 0 001.07.34 2.5 2.5 0 001.1-.24 4.07 4.07 0 00.78-.49v1.29a3 3 0 01-.78.46 2.71 2.71 0 01-1.14.24 3.14 3.14 0 01-1.5-.37 2.91 2.91 0 01-1.07-1 2.71 2.71 0 01-.4-1.48 3.09 3.09 0 01.36-1.48 3 3 0 011-1.08 2.61 2.61 0 011.42-.46zm0 1.22a1.28 1.28 0 00-.87.32 1.66 1.66 0 00-.48.85h2.65a1.12 1.12 0 00-.44-.88 1.44 1.44 0 00-.89-.29zm7.36.48a1.51 1.51 0 00-.73-.2 1.08 1.08 0 00-.8.32 2.69 2.69 0 00-.56.77v3.08h-1.39v-5.52h1.39v1a2.89 2.89 0 01.67-.82 1.32 1.32 0 01.88-.33 1.33 1.33 0 01.54.1zm1.95-1.55l1.57 3.52 1.54-3.52h1.58l-4 8.15h-1.58l1.66-3-2.38-5.12zm8.12-.15a2.9 2.9 0 011.48.39 3.07 3.07 0 011.07 1.1 2.74 2.74 0 01.41 1.49 2.65 2.65 0 01-.41 1.47 3.07 3.07 0 01-1.07 1.04 2.9 2.9 0 01-1.48.39 2.86 2.86 0 01-1.47-.39 3 3 0 01-1.08-1.05 2.73 2.73 0 01-.41-1.47 2.83 2.83 0 01.41-1.48 3 3 0 011.08-1.05 2.86 2.86 0 011.47-.44zm0 1.35a1.48 1.48 0 00-.74.19 1.44 1.44 0 00-.54.53 1.76 1.76 0 00-.2.86 1.72 1.72 0 00.2.85 1.44 1.44 0 00.54.53 1.59 1.59 0 00.74.18 1.52 1.52 0 00.73-.18 1.4 1.4 0 00.55-.53 1.62 1.62 0 00.21-.85 1.66 1.66 0 00-.21-.86 1.4 1.4 0 00-.55-.53 1.42 1.42 0 00-.73-.19zm5.67-1.2v.78a3 3 0 01.68-.63 1.7 1.7 0 011-.3 1.94 1.94 0 011.42.57 2.36 2.36 0 01.56 1.71v3.39h-1.39V60a1.12 1.12 0 00-.27-.83.94.94 0 00-.73-.28 1.16 1.16 0 00-.7.24 2.48 2.48 0 00-.55.57v3.5h-1.39v-5.54zm7.67-.15a2.72 2.72 0 011.4.35 2.31 2.31 0 01.89 1 3.14 3.14 0 01.32 1.43v.59h-4a1.47 1.47 0 00.55.9 1.67 1.67 0 001.07.34 2.5 2.5 0 001.1-.24 4.07 4.07 0 00.78-.49v1.29a3 3 0 01-.78.46 2.71 2.71 0 01-1.14.24 3.14 3.14 0 01-1.5-.37 2.91 2.91 0 01-1.07-1 2.71 2.71 0 01-.4-1.48 3.09 3.09 0 01.36-1.48 3 3 0 011-1.08 2.61 2.61 0 011.42-.46zm0 1.22a1.28 1.28 0 00-.87.32 1.66 1.66 0 00-.48.85h2.65a1.12 1.12 0 00-.44-.88 1.44 1.44 0 00-.89-.29z"/><path class="hcls-2" d="M132.95 39.49h51.98v11.79h-51.98z"/><path class="hcls-3" d="M143.74 44.06l-1.92 5.53h-1l-1.3-3.59-1.29 3.58h-1l-1.91-5.53h1.51l1 3.27 1.17-3.26h1l1.18 3.27 1-3.27zm3.38-.14a2.62 2.62 0 011.4.35 2.2 2.2 0 01.89 1 3.06 3.06 0 01.32 1.42v.6h-4a1.42 1.42 0 00.55.89 1.67 1.67 0 001.07.34 2.42 2.42 0 001.09-.24 3.49 3.49 0 00.79-.49v1.29a3.45 3.45 0 01-.78.47 2.88 2.88 0 01-1.15.23 3 3 0 01-1.49-.37 2.84 2.84 0 01-1.07-1 2.71 2.71 0 01-.4-1.48 3 3 0 01.36-1.47 2.81 2.81 0 011-1.08 2.53 2.53 0 011.42-.46zm0 1.21a1.26 1.26 0 00-.87.32 1.7 1.7 0 00-.48.85h2.65a1.16 1.16 0 00-.44-.88 1.44 1.44 0 00-.89-.29zm6.94-1.21a2.43 2.43 0 012.23 1.37 3.79 3.79 0 010 3.14 2.47 2.47 0 01-.91 1 2.29 2.29 0 01-1.22.34 1.83 1.83 0 01-1.07-.32 2.22 2.22 0 01-.7-.77v.93H151v-7.9h1.39v3a2.18 2.18 0 01.76-.56 2.26 2.26 0 01.91-.23zm-.28 1.37a1.6 1.6 0 00-.75.18 2.28 2.28 0 00-.64.49v.79a1.57 1.57 0 00.19.86 1.4 1.4 0 00.53.55 1.34 1.34 0 00.7.19 1.26 1.26 0 001-.43 1.57 1.57 0 00.38-1.06 1.68 1.68 0 00-.18-.77 1.45 1.45 0 00-.49-.58 1.24 1.24 0 00-.74-.22zm5.96-1.37a2.91 2.91 0 01.95.15 2.26 2.26 0 01.68.35v1.23a3.77 3.77 0 00-.64-.34 1.92 1.92 0 00-.78-.17 1 1 0 00-.62.18.47.47 0 00-.1.74 1 1 0 00.5.25l.62.21a1.49 1.49 0 011.26 1.48 1.46 1.46 0 01-.29.91 1.92 1.92 0 01-.77.63 2.58 2.58 0 01-1.08.23 3.6 3.6 0 01-1.09-.17 3 3 0 01-.8-.39V48a3.94 3.94 0 00.51.27 4.44 4.44 0 00.61.22 2.59 2.59 0 00.58.08 1.14 1.14 0 00.64-.15.48.48 0 00.23-.42.39.39 0 00-.19-.33 2.46 2.46 0 00-.55-.24l-.68-.24a1.58 1.58 0 01-.87-.59 1.69 1.69 0 01-.24-.91 1.58 1.58 0 01.27-.92 1.77 1.77 0 01.75-.61 2.57 2.57 0 011.1-.24zm5.03.14v5.53h-1.39v-4.35h-.89v-1.18zm-.77-2.88a.94.94 0 11-.68 1.6.92.92 0 010-1.32.91.91 0 01.68-.28zm4.52 1.27v1.61h1.53v1.16h-1.53v2.39a.93.93 0 00.17.58.61.61 0 00.51.21 1.88 1.88 0 00.51-.06 1.62 1.62 0 00.4-.19v1.11a1.82 1.82 0 01-.52.35 2 2 0 01-.78.14 1.6 1.6 0 01-1.21-.48 1.73 1.73 0 01-.47-1.3v-2.75h-1v-.71a2.36 2.36 0 001-.7 3.88 3.88 0 00.71-1.36zm5.37 1.47a2.62 2.62 0 011.4.35 2.28 2.28 0 01.9 1 3.06 3.06 0 01.31 1.42v.6h-4a1.47 1.47 0 00.55.89 1.67 1.67 0 001.07.34 2.5 2.5 0 001.1-.24 3.73 3.73 0 00.79-.49v1.29a3.24 3.24 0 01-.78.47 2.83 2.83 0 01-1.14.23 3 3 0 01-1.5-.37 3 3 0 01-1.07-1 2.8 2.8 0 01-.4-1.48 3 3 0 01.36-1.47 2.89 2.89 0 011-1.08 2.53 2.53 0 011.41-.46zm0 1.21a1.24 1.24 0 00-.86.32 1.56 1.56 0 00-.48.85h2.64a1.15 1.15 0 00-.43-.88 1.47 1.47 0 00-.9-.29zm5.66-1.21a3 3 0 011 .15 2.19 2.19 0 01.67.35v1.23a3.42 3.42 0 00-.64-.34 1.92 1.92 0 00-.78-.17 1 1 0 00-.62.18.48.48 0 00-.1.74 1 1 0 00.5.25l.63.21a1.48 1.48 0 011.21 1.48 1.46 1.46 0 01-.29.91 1.92 1.92 0 01-.77.63 2.58 2.58 0 01-1.08.23 3.59 3.59 0 01-1.08-.17 2.83 2.83 0 01-.8-.39V48a3.76 3.76 0 00.5.27 4.44 4.44 0 00.61.22 2.67 2.67 0 00.58.08 1.14 1.14 0 00.64-.15.48.48 0 00.27-.42.37.37 0 00-.19-.33 2.27 2.27 0 00-.55-.24l-.67-.24a1.57 1.57 0 01-.88-.59 1.69 1.69 0 01-.24-.91 1.58 1.58 0 01.27-.92 1.91 1.91 0 01.75-.61 2.57 2.57 0 011.06-.24z"/><text class="hcls-4" transform="translate(121.22 46.73)">®</text></g></g></symbol><symbol viewBox="0 0 24 28" id="github" xmlns="http://www.w3.org/2000/svg"><path d="M24 14q0 3.922-2.289 7.055t-5.914 4.336q-.422.078-.617-.109t-.195-.469v-3.297q0-1.516-.812-2.219.891-.094 1.602-.281t1.469-.609 1.266-1.039.828-1.641.32-2.352q0-1.891-1.234-3.219.578-1.422-.125-3.187-.438-.141-1.266.172t-1.437.688l-.594.375q-1.453-.406-3-.406t-3 .406q-.25-.172-.664-.422T7.033 7.18t-1.344-.211q-.688 1.766-.109 3.187-1.234 1.328-1.234 3.219 0 1.328.32 2.344t.82 1.641 1.258 1.047 1.469.609 1.602.281q-.625.562-.766 1.609-.328.156-.703.234t-.891.078-1.023-.336-.867-.977q-.297-.5-.758-.812t-.773-.375l-.313-.047q-.328 0-.453.07t-.078.18.141.219.203.187l.109.078q.344.156.68.594t.492.797l.156.359q.203.594.688.961t1.047.469 1.086.109.867-.055l.359-.063q0 .594.008 1.391t.008.844q0 .281-.203.469t-.625.109q-3.625-1.203-5.914-4.336T.003 13.998q0-3.266 1.609-6.023t4.367-4.367 6.023-1.609 6.023 1.609 4.367 4.367 1.609 6.023z"/></symbol><symbol viewBox="0 0 5 14" id="grip" xmlns="http://www.w3.org/2000/svg"><g fill-rule="evenodd"><circle cx="1" cy="1" r="1"/><circle cx="4" cy="1" r="1"/><circle cx="1" cy="4" r="1"/><circle cx="4" cy="4" r="1"/><circle cx="1" cy="7" r="1"/><circle cx="4" cy="7" r="1"/><circle cx="1" cy="10" r="1"/><circle cx="4" cy="10" r="1"/><circle cx="1" cy="13" r="1"/><circle cx="4" cy="13" r="1"/></g></symbol><symbol viewBox="0 0 15 6" id="grip-horizontal" xmlns="http://www.w3.org/2000/svg"><g transform="rotate(-90 3 2.5)" fill-rule="evenodd"><circle cx="1" cy="1" r="1"/><circle cx="4" cy="1" r="1"/><circle cx="1" cy="4" r="1"/><circle cx="4" cy="4" r="1"/><circle cx="1" cy="7" r="1"/><circle cx="4" cy="7" r="1"/><circle cx="1" cy="10" r="1"/><circle cx="4" cy="10" r="1"/><circle cx="1" cy="13" r="1"/><circle cx="4" cy="13" r="1"/></g></symbol><symbol viewBox="0 0 24 28" id="linkedin" xmlns="http://www.w3.org/2000/svg"><path d="M5.453 9.766V25.25H.297V9.766h5.156zm.328-4.782q.016 1.141-.789 1.906t-2.117.766h-.031q-1.281 0-2.063-.766T0 4.984Q0 3.828.805 3.07t2.102-.758 2.078.758.797 1.914zM24 16.375v8.875h-5.141v-8.281q0-1.641-.633-2.57t-1.977-.93q-.984 0-1.648.539t-.992 1.336q-.172.469-.172 1.266v8.641H8.296q.031-6.234.031-10.109t-.016-4.625l-.016-.75h5.141v2.25h-.031q.313-.5.641-.875t.883-.812 1.359-.68 1.789-.242q2.672 0 4.297 1.773t1.625 5.195z"/></symbol><symbol viewBox="0 0 28 28" id="medium" xmlns="http://www.w3.org/2000/svg"><path d="M9.328 6.578v18.328q0 .391-.195.664t-.57.273q-.266 0-.516-.125L.781 22.077q-.328-.156-.555-.523t-.227-.727V3.014q0-.313.156-.531t.453-.219q.219 0 .688.234l7.984 4q.047.047.047.078zm1 1.578l8.344 13.531-8.344-4.156V8.156zM28 8.437v16.469q0 .391-.219.633t-.594.242-.734-.203l-6.891-3.437zm-.047-1.874q0 .047-4.008 6.555t-4.695 7.617l-6.094-9.906 5.063-8.234q.266-.438.812-.438.219 0 .406.094L27.89 6.47q.063.031.063.094z"/></symbol><symbol viewBox="0 0 24 24" id="participants" xmlns="http://www.w3.org/2000/svg"><path d="M15.5 22H.5c-.3 0-.5-.2-.5-.5V17c0-1 3.6-2.6 5.5-3.3v-1.4c-.4-.3-.9-1-1-2.4-.4-.3-.6-.9-.6-1.5 0-.3.1-.6.2-.9l.3-.3c-.3-.7-.8-1.7-.2-2.4.2-.3.6-.4 1-.4.5-1 2.1-1.4 3.3-1.4 1.4 0 3.1.5 3.5 1.9.2.9-.1 1.8-.3 2.3.1.1.2.2.2.3.1.2.2.5.2.9 0 .6-.2 1.2-.7 1.5-.1 1.5-.6 2.1-1 2.4v1.4c2 .7 5.6 2.3 5.6 3.3v4.5c0 .3-.2.5-.5.5zM1 21h14v-3.9c-.4-.4-2.6-1.6-5.2-2.6-.2-.1-.3-.3-.3-.5v-2c0-.2.1-.4.3-.5 0 0 .7-.3.7-2 0-.3.2-.5.5-.5 0 0 .1-.3.1-.7 0-.2-.1-.3-.1-.3-.3 0-.5-.2-.5-.5 0-.2.1-.3.2-.5.2-.4.5-1.1.3-1.9C10.9 4.5 9.8 4 8.5 4S6.1 4.5 6 5.1c-.1.3-.3.4-.6.4-.4-.1-.5 0-.5 0-.1.1 0 .4.4 1.4.1.3.2.5.2.6 0 .1-.1.3-.1.4S5.1 8 5 8c0 0-.1 0-.1.1-.1.4 0 .8.2.9.3 0 .4.2.4.5 0 1.7.7 2 .7 2 .2.1.3.3.3.5v2c0 .2-.1.4-.3.5-2.6 1-4.8 2.2-5.2 2.6V21z"/><path d="M23.5 22H18c-.3 0-.5-.2-.5-.5s.2-.5.5-.5h5v-3.9c-.3-.2-1.5-.7-2.4-1-.6-.2-1.2-.4-1.8-.7-.2-.1-.3-.3-.3-.5v-1.5c0-.2.1-.4.4-.5 0 0 .6-.2.6-1.5 0-.2.2-.4.4-.5.1-.2.2-.9 0-1-.3 0-.4-.2-.4-.5 0-.2.1-.3.2-.5.2-.3.5-.9.3-1.3-.1-.4-1-.8-2-.8s-1.9.3-2 .8c-.1.3-.3.4-.6.4-.2-.1-.3 0-.3 0 0 .1.1.5.3 1 .1.2.1.4.1.5 0 .3-.2.5-.5.5-.1.1 0 .8.1 1 .2.1.4.3.4.5 0 1.3.6 1.5.6 1.5.2.1.4.3.4.5v1c0 .3-.2.5-.5.5s-.5-.2-.5-.5v-.7c-.4-.2-.9-.8-1-2-.3-.3-.5-.9-.5-1.5 0-.2 0-.6.2-.8.1-.1.1-.2.2-.3-.2-.6-.5-1.4 0-1.9.1-.2.4-.3.8-.3.6-.8 1.8-1.1 2.8-1.1 1.1 0 2.6.4 3 1.5.3.8-.1 1.5-.3 2 .1.1.1.2.2.2.1.2.1.6.1.8 0 .6-.2 1.2-.5 1.4-.1 1.2-.6 1.7-1 2v.9c.5.2 1 .4 1.4.5 2.2.8 3.1 1.1 3.1 1.8v4.5c0 .3-.2.5-.5.5z"/></symbol><symbol viewBox="0 0 24 24" id="stopwatch" xmlns="http://www.w3.org/2000/svg"><path d="M19.4 7.3l1.1-1.1.1.1c.1.1.2.1.4.1s.3 0 .4-.1c.2-.2.2-.5 0-.7l-1-1c-.2-.2-.5-.2-.7 0s-.2.5 0 .7l.1.1-1.1 1.1c-1.3-1.2-2.9-2-4.7-2.4V1h1c.3 0 .5-.2.5-.5S15.3 0 15 0H9c-.3 0-.5.2-.5.5s.2.5.5.5h1v3.2c-4.6.9-8 5-8 9.8 0 5.5 4.5 10 10 10s10-4.5 10-10c0-2.6-1-4.9-2.6-6.7zM11 1h2v3.1c-.3-.1-.7-.1-1-.1s-.7 0-1 .1V1zm1 22c-5 0-9-4-9-9s4-9 9-9 9 4 9 9-4 9-9 9z"/><path d="M7.9 9.1c-.2-.1-.6-.1-.8 0s-.1.6 0 .8l4.5 4.5c.1.1.2.1.4.1s.3 0 .4-.1c.2-.2.2-.5 0-.7L7.9 9.1z"/></symbol><symbol viewBox="0 0 26 28" id="twitter" xmlns="http://www.w3.org/2000/svg"><path d="M25.312 6.375q-1.047 1.531-2.531 2.609.016.219.016.656 0 2.031-.594 4.055t-1.805 3.883-2.883 3.289-4.031 2.281T8.437 24q-4.234 0-7.75-2.266.547.063 1.219.063 3.516 0 6.266-2.156-1.641-.031-2.938-1.008t-1.781-2.492q.516.078.953.078.672 0 1.328-.172-1.75-.359-2.898-1.742t-1.148-3.211v-.063q1.062.594 2.281.641-1.031-.688-1.641-1.797t-.609-2.406q0-1.375.688-2.547Q4.298 7.25 7.009 8.649t5.805 1.555q-.125-.594-.125-1.156 0-2.094 1.477-3.57t3.57-1.477q2.188 0 3.687 1.594 1.703-.328 3.203-1.219-.578 1.797-2.219 2.781 1.453-.156 2.906-.781z"/></symbol></svg>