<svg xmlns="http://www.w3.org/2000/svg" viewBox="0 0 204.89 75.17"><defs><style>.cls-1,.cls-4{fill:#015798;}.cls-2{fill:#f3cd1e;}.cls-3{fill:#072446;}.cls-4{font-size:10px;font-family:OpenSans-Bold, Open Sans;font-weight:700;}</style></defs><g id="Layer_2" data-name="Layer 2"><g id="Layer_1-2" data-name="Layer 1"><path class="cls-1" d="M0,28.92V1.74H18.65V7.17H6v5.36H16.38V18H6v5.51H18.65v5.44Z"/><path class="cls-1" d="M20.73,18.73a10,10,0,0,1,.88-4.19A11.27,11.27,0,0,1,24,11.1a11.31,11.31,0,0,1,7.93-3.17,11.26,11.26,0,0,1,4.36.85,11.12,11.12,0,0,1,3.57,2.32,11.44,11.44,0,0,1,2.4,3.44,10,10,0,0,1,.88,4.19v17H37.49V27.26A8.31,8.31,0,0,1,35,28.92a7.71,7.71,0,0,1-3,.6,11.18,11.18,0,0,1-10.33-6.6A10.09,10.09,0,0,1,20.73,18.73Zm5.66,0a5.45,5.45,0,0,0,.45,2.2,5.81,5.81,0,0,0,1.21,1.8,6,6,0,0,0,1.79,1.21,5.65,5.65,0,0,0,4.42,0,6,6,0,0,0,1.79-1.21,5.65,5.65,0,0,0,1.21-1.8,5.51,5.51,0,0,0,0-4.41,5.6,5.6,0,0,0-3-3,5.54,5.54,0,0,0-4.42,0,5.74,5.74,0,0,0-1.79,1.2,5.93,5.93,0,0,0-1.21,1.8A5.49,5.49,0,0,0,26.39,18.73Z"/><path class="cls-1" d="M61.46,8.53h5.67v10.2a11.88,11.88,0,0,1-.74,4.19,10.26,10.26,0,0,1-2.1,3.43A9.69,9.69,0,0,1,61,28.67a11,11,0,0,1-8.5,0,9.69,9.69,0,0,1-3.26-2.32,10.26,10.26,0,0,1-2.1-3.43,11.87,11.87,0,0,1-.73-4.19V8.53H52.1v10.2a8.24,8.24,0,0,0,.28,2.2,5.11,5.11,0,0,0,.87,1.8,4.46,4.46,0,0,0,1.47,1.21,4.94,4.94,0,0,0,4.12,0,4.46,4.46,0,0,0,1.47-1.21,5.11,5.11,0,0,0,.87-1.8,8.24,8.24,0,0,0,.28-2.2Z"/><path class="cls-1" d="M80.79,7.93a11.41,11.41,0,0,1,7.93,3.17,11.1,11.1,0,0,1,2.4,3.44A10,10,0,0,1,92,18.73V28.92H86.72V26.39a7.2,7.2,0,0,1-2.53,2.28,6.89,6.89,0,0,1-3.4.85,11.14,11.14,0,0,1-10.32-6.6,10.31,10.31,0,0,1,0-8.38A11.21,11.21,0,0,1,80.79,7.93Zm.12,16.46a5.45,5.45,0,0,0,2.2-.45,5.64,5.64,0,0,0,3-3,5.63,5.63,0,0,0,0-4.41,6.12,6.12,0,0,0-1.21-1.8,5.79,5.79,0,0,0-1.8-1.2,5.51,5.51,0,0,0-4.41,0,5.79,5.79,0,0,0-1.8,1.2,5.91,5.91,0,0,0-1.2,1.8,5.51,5.51,0,0,0,0,4.41,5.79,5.79,0,0,0,1.2,1.8,6,6,0,0,0,1.8,1.21A5.46,5.46,0,0,0,80.91,24.39Z"/><path class="cls-1" d="M95.59,1.74h5.66V28.92H95.59Z"/><path class="cls-1" d="M108.2,0a3.17,3.17,0,0,1,1.27.26,3.49,3.49,0,0,1,1,.7,3.46,3.46,0,0,1,.69,1,3,3,0,0,1,.27,1.27,3,3,0,0,1-.27,1.26,3.7,3.7,0,0,1-.69,1,3.15,3.15,0,0,1-1,.7,3.34,3.34,0,0,1-1.27.24,3.13,3.13,0,0,1-2.3-.94,3.13,3.13,0,0,1-.94-2.3A3.3,3.3,0,0,1,105.2,2a3,3,0,0,1,.7-1,3.73,3.73,0,0,1,1-.7A3.12,3.12,0,0,1,108.2,0Zm-2.83,8.53H111V28.92h-5.66Z"/><path class="cls-1" d="M114.28,8.53H130.7v4.08l-9.55,11.48h9.55v4.83H114V24.84l9.55-11.48h-9.29Z"/><path class="cls-1" d="M143.54,7.93a11.52,11.52,0,0,1,4.42.85,11.26,11.26,0,0,1,3.6,2.32A11,11,0,0,1,154,14.54a10,10,0,0,1,.89,4.19,8,8,0,0,1-.06,1c0,.31-.08.63-.13,1H138.22a5.91,5.91,0,0,0,2.05,2.66,5.43,5.43,0,0,0,3.27,1,5.34,5.34,0,0,0,2.53-.61A5.62,5.62,0,0,0,148,22.2h6.27a10.76,10.76,0,0,1-4.06,5.27A12.29,12.29,0,0,1,147.09,29a11.66,11.66,0,0,1-3.55.54,11.52,11.52,0,0,1-4.42-.85,11.26,11.26,0,0,1-3.6-2.32,11,11,0,0,1-2.42-3.43,10.31,10.31,0,0,1,0-8.38,11,11,0,0,1,2.42-3.44,11.26,11.26,0,0,1,3.6-2.32A11.52,11.52,0,0,1,143.54,7.93Zm5.32,8.79a5.92,5.92,0,0,0-2.07-2.63,5.67,5.67,0,0,0-6.52,0,5.88,5.88,0,0,0-2.05,2.63Z"/><path class="cls-1" d="M25.33,53.09a14.37,14.37,0,0,1-1,5.43,12.43,12.43,0,0,1-2.85,4.31A13,13,0,0,1,17,65.66a16.78,16.78,0,0,1-6,1H0V39.49H11a16.11,16.11,0,0,1,5.85,1,13.6,13.6,0,0,1,4.53,2.83,13,13,0,0,1,3,4.31A13.85,13.85,0,0,1,25.33,53.09ZM11.17,61.24a7.82,7.82,0,0,0,3.18-.64,8.21,8.21,0,0,0,2.58-1.76,8.38,8.38,0,0,0,1.76-2.58,8.2,8.2,0,0,0,0-6.35,8.41,8.41,0,0,0-4.34-4.34,7.82,7.82,0,0,0-3.18-.64H6V61.24Z"/><path class="cls-1" d="M32.28,37.76a3.12,3.12,0,0,1,1.26.26,3.49,3.49,0,0,1,1,.7,3.31,3.31,0,0,1,.7,1,3.1,3.1,0,0,1,0,2.53,3.66,3.66,0,0,1-.7,1,3.15,3.15,0,0,1-1,.7,3.29,3.29,0,0,1-1.26.24,3.26,3.26,0,0,1-3-4.51,2.86,2.86,0,0,1,.7-1,3.68,3.68,0,0,1,1-.7A3.21,3.21,0,0,1,32.28,37.76Zm-2.83,8.53h5.66V66.68H29.45Z"/><path class="cls-1" d="M49.31,45.69a11.29,11.29,0,0,1,4.36.85,11.09,11.09,0,0,1,6,5.75,10.1,10.1,0,0,1,.89,4.19v7.89a10.18,10.18,0,0,1-.87,4.19A10.88,10.88,0,0,1,57.27,72a11,11,0,0,1-3.57,2.32,11.66,11.66,0,0,1-7.91.3,11.27,11.27,0,0,1-5.54-3.88,9.12,9.12,0,0,1-1.55-3h6.19a5.37,5.37,0,0,0,1.9,1.71,5.18,5.18,0,0,0,2.52.63,5.3,5.3,0,0,0,2.11-.42,5.46,5.46,0,0,0,1.72-1.15,5.58,5.58,0,0,0,1.17-1.72,6.16,6.16,0,0,0,.51-2.11v-.08a7.41,7.41,0,0,1-2.4,2,6.52,6.52,0,0,1-3.11.74,11.21,11.21,0,0,1-4.38-.85,11.09,11.09,0,0,1-6-5.76,10.31,10.31,0,0,1,0-8.38,11.11,11.11,0,0,1,6-5.75A11.21,11.21,0,0,1,49.31,45.69ZM43.76,56.48a5.49,5.49,0,0,0,.45,2.21,5.6,5.6,0,0,0,3,3,5.54,5.54,0,0,0,4.42,0,5.74,5.74,0,0,0,1.79-1.2,5.93,5.93,0,0,0,1.21-1.8,5.65,5.65,0,0,0,0-4.42,5.69,5.69,0,0,0-3-3,5.65,5.65,0,0,0-4.42,0,6,6,0,0,0-1.79,1.21,5.71,5.71,0,0,0-1.21,1.79A5.53,5.53,0,0,0,43.76,56.48Z"/><path class="cls-1" d="M67.09,37.76a3.12,3.12,0,0,1,1.26.26,3.38,3.38,0,0,1,1.72,1.72,3.21,3.21,0,0,1,0,2.53,3.88,3.88,0,0,1-.7,1,3.15,3.15,0,0,1-1,.7,3.29,3.29,0,0,1-1.26.24,3.1,3.1,0,0,1-2.3-.94,3.29,3.29,0,0,1-.7-3.57,2.86,2.86,0,0,1,.7-1,3.68,3.68,0,0,1,1-.7A3.17,3.17,0,0,1,67.09,37.76Zm-2.83,8.53h5.66V66.68H64.26Z"/><path class="cls-1" d="M79.58,46.29h5.67v4.83H79.58v5.36A5.5,5.5,0,0,0,80,58.69a5.6,5.6,0,0,0,3,3,5.34,5.34,0,0,0,2.21.46v5.13h-.76a10.48,10.48,0,0,1-4.28-.85,10,10,0,0,1-3.34-2.32,10.32,10.32,0,0,1-2.17-3.44,11.19,11.19,0,0,1-.78-4.19v-17h5.66Z"/><path class="cls-1" d="M98.91,45.69a11.22,11.22,0,0,1,4.36.85,10.91,10.91,0,0,1,3.57,2.32,11.05,11.05,0,0,1,2.4,3.43,10.1,10.1,0,0,1,.89,4.19v10.2h-5.29V64.15a7.21,7.21,0,0,1-2.53,2.28,6.89,6.89,0,0,1-3.4.85,11.17,11.17,0,0,1-10.32-6.61,10.31,10.31,0,0,1,0-8.38,11.24,11.24,0,0,1,10.32-6.6ZM99,62.15a5.37,5.37,0,0,0,2.21-.46,5.74,5.74,0,0,0,1.79-1.2,5.93,5.93,0,0,0,1.21-1.8,5.65,5.65,0,0,0,0-4.42,5.69,5.69,0,0,0-3-3,5.65,5.65,0,0,0-4.42,0A6,6,0,0,0,95,52.48a5.71,5.71,0,0,0-1.21,1.79,5.54,5.54,0,0,0,0,4.42,5.6,5.6,0,0,0,3,3A5.34,5.34,0,0,0,99,62.15Z"/><path class="cls-1" d="M113.71,39.49h5.67V66.68h-5.67Z"/><rect class="cls-2" x="132.95" y="53.34" width="71.95" height="13.33"/><path class="cls-3" d="M139.3,57.66v1.16h-1.44v4.36h-1.39V58.82h-.84V57.66h.84v-.5a2.12,2.12,0,0,1,.27-1.09,1.81,1.81,0,0,1,.71-.69,2,2,0,0,1,1-.24,1.88,1.88,0,0,1,.61.08,1.77,1.77,0,0,1,.46.2v1.16a1.53,1.53,0,0,0-.83-.2.79.79,0,0,0-.56.21.85.85,0,0,0-.23.66v.41Z"/><path class="cls-3" d="M143,57.51a2.9,2.9,0,0,1,1.48.39A3.19,3.19,0,0,1,145.52,59a2.83,2.83,0,0,1,.41,1.49,2.73,2.73,0,0,1-.41,1.47A3.19,3.19,0,0,1,144.44,63a3,3,0,0,1-2.95,0,3,3,0,0,1-1.08-1.05,2.73,2.73,0,0,1-.4-1.47,2.82,2.82,0,0,1,.4-1.49,3,3,0,0,1,1.08-1.05A2.89,2.89,0,0,1,143,57.51Zm0,1.35a1.42,1.42,0,0,0-.73.19,1.31,1.31,0,0,0-.54.53,1.66,1.66,0,0,0-.21.86,1.62,1.62,0,0,0,.21.85,1.31,1.31,0,0,0,.54.53A1.52,1.52,0,0,0,143,62a1.59,1.59,0,0,0,.74-.18,1.44,1.44,0,0,0,.54-.53,1.62,1.62,0,0,0,.21-.85,1.66,1.66,0,0,0-.21-.86,1.44,1.44,0,0,0-.54-.53A1.48,1.48,0,0,0,143,58.86Z"/><path class="cls-3" d="M150.72,59.21A1.49,1.49,0,0,0,150,59a1.09,1.09,0,0,0-.8.32,2.89,2.89,0,0,0-.56.77v3.08h-1.39V57.66h1.39v1a3.07,3.07,0,0,1,.67-.82,1.35,1.35,0,0,1,.89-.33,1.32,1.32,0,0,1,.53.1Z"/><path class="cls-3" d="M157.5,57.51a2.68,2.68,0,0,1,1.39.35,2.4,2.4,0,0,1,.9,1,3.13,3.13,0,0,1,.31,1.43v.59h-4a1.46,1.46,0,0,0,.54.9,1.7,1.7,0,0,0,1.08.34,2.45,2.45,0,0,0,1.09-.24,4.18,4.18,0,0,0,.79-.49v1.29a3.33,3.33,0,0,1-.78.46,2.72,2.72,0,0,1-1.15.24,3.1,3.1,0,0,1-1.49-.37,2.84,2.84,0,0,1-1.07-1,2.71,2.71,0,0,1-.4-1.48,3.09,3.09,0,0,1,.36-1.48,3,3,0,0,1,1-1.08A2.67,2.67,0,0,1,157.5,57.51Zm0,1.22a1.24,1.24,0,0,0-.86.32,1.66,1.66,0,0,0-.48.85h2.65a1.15,1.15,0,0,0-.44-.88A1.44,1.44,0,0,0,157.46,58.73Z"/><path class="cls-3" d="M166.71,57.66l-2.61,5.52h-.89l-2.58-5.52h1.62l1.39,3.42,1.45-3.42Z"/><path class="cls-3" d="M169.82,57.51a2.72,2.72,0,0,1,1.4.35,2.4,2.4,0,0,1,.9,1,3.27,3.27,0,0,1,.31,1.43v.59h-4a1.47,1.47,0,0,0,.55.9,1.67,1.67,0,0,0,1.07.34,2.5,2.5,0,0,0,1.1-.24,4.07,4.07,0,0,0,.78-.49v1.29a3,3,0,0,1-.78.46,2.71,2.71,0,0,1-1.14.24,3.14,3.14,0,0,1-1.5-.37,2.91,2.91,0,0,1-1.07-1,2.71,2.71,0,0,1-.4-1.48,3.09,3.09,0,0,1,.36-1.48,3,3,0,0,1,1-1.08A2.61,2.61,0,0,1,169.82,57.51Zm0,1.22a1.28,1.28,0,0,0-.87.32,1.66,1.66,0,0,0-.48.85h2.65a1.12,1.12,0,0,0-.44-.88A1.44,1.44,0,0,0,169.79,58.73Z"/><path class="cls-3" d="M177.18,59.21a1.51,1.51,0,0,0-.73-.2,1.08,1.08,0,0,0-.8.32,2.69,2.69,0,0,0-.56.77v3.08H173.7V57.66h1.39v1a2.89,2.89,0,0,1,.67-.82,1.32,1.32,0,0,1,.88-.33,1.33,1.33,0,0,1,.54.1Z"/><path class="cls-3" d="M179.13,57.66l1.57,3.52,1.54-3.52h1.58l-4,8.15h-1.58l1.66-3-2.38-5.12Z"/><path class="cls-3" d="M187.25,57.51a2.9,2.9,0,0,1,1.48.39A3.07,3.07,0,0,1,189.8,59a2.74,2.74,0,0,1,.41,1.49,2.65,2.65,0,0,1-.41,1.47A3.07,3.07,0,0,1,188.73,63a2.9,2.9,0,0,1-1.48.39,2.86,2.86,0,0,1-1.47-.39,3,3,0,0,1-1.08-1.05,2.73,2.73,0,0,1-.41-1.47A2.83,2.83,0,0,1,184.7,59a3,3,0,0,1,1.08-1.05A2.86,2.86,0,0,1,187.25,57.51Zm0,1.35a1.48,1.48,0,0,0-.74.19,1.44,1.44,0,0,0-.54.53,1.76,1.76,0,0,0-.2.86,1.72,1.72,0,0,0,.2.85,1.44,1.44,0,0,0,.54.53,1.59,1.59,0,0,0,.74.18,1.52,1.52,0,0,0,.73-.18,1.4,1.4,0,0,0,.55-.53,1.62,1.62,0,0,0,.21-.85,1.66,1.66,0,0,0-.21-.86,1.4,1.4,0,0,0-.55-.53A1.42,1.42,0,0,0,187.25,58.86Z"/><path class="cls-3" d="M192.92,57.66v.78a3,3,0,0,1,.68-.63,1.7,1.7,0,0,1,1-.3,1.94,1.94,0,0,1,1.42.57,2.36,2.36,0,0,1,.56,1.71v3.39h-1.39V60a1.12,1.12,0,0,0-.27-.83.94.94,0,0,0-.73-.28,1.16,1.16,0,0,0-.7.24,2.48,2.48,0,0,0-.55.57v3.5h-1.39V57.66Z"/><path class="cls-3" d="M200.59,57.51a2.72,2.72,0,0,1,1.4.35,2.31,2.31,0,0,1,.89,1,3.14,3.14,0,0,1,.32,1.43v.59h-4a1.47,1.47,0,0,0,.55.9,1.67,1.67,0,0,0,1.07.34,2.5,2.5,0,0,0,1.1-.24,4.07,4.07,0,0,0,.78-.49v1.29a3,3,0,0,1-.78.46,2.71,2.71,0,0,1-1.14.24,3.14,3.14,0,0,1-1.5-.37,2.91,2.91,0,0,1-1.07-1,2.71,2.71,0,0,1-.4-1.48,3.09,3.09,0,0,1,.36-1.48,3,3,0,0,1,1-1.08A2.61,2.61,0,0,1,200.59,57.51Zm0,1.22a1.28,1.28,0,0,0-.87.32,1.66,1.66,0,0,0-.48.85h2.65a1.12,1.12,0,0,0-.44-.88A1.44,1.44,0,0,0,200.56,58.73Z"/><rect class="cls-2" x="132.95" y="39.49" width="51.98" height="11.79"/><path class="cls-3" d="M143.74,44.06l-1.92,5.53h-1L139.52,46l-1.29,3.58h-1l-1.91-5.53h1.51l1,3.27L139,44.06h1l1.18,3.27,1-3.27Z"/><path class="cls-3" d="M147.12,43.92a2.62,2.62,0,0,1,1.4.35,2.2,2.2,0,0,1,.89,1,3.06,3.06,0,0,1,.32,1.42v.6h-4a1.42,1.42,0,0,0,.55.89,1.67,1.67,0,0,0,1.07.34,2.42,2.42,0,0,0,1.09-.24,3.49,3.49,0,0,0,.79-.49v1.29a3.45,3.45,0,0,1-.78.47,2.88,2.88,0,0,1-1.15.23,3,3,0,0,1-1.49-.37,2.84,2.84,0,0,1-1.07-1,2.71,2.71,0,0,1-.4-1.48,3,3,0,0,1,.36-1.47,2.81,2.81,0,0,1,1-1.08A2.53,2.53,0,0,1,147.12,43.92Zm0,1.21a1.26,1.26,0,0,0-.87.32,1.7,1.7,0,0,0-.48.85h2.65a1.16,1.16,0,0,0-.44-.88A1.44,1.44,0,0,0,147.09,45.13Z"/><path class="cls-3" d="M154.06,43.92a2.43,2.43,0,0,1,2.23,1.37,3.79,3.79,0,0,1,0,3.14,2.47,2.47,0,0,1-.91,1,2.29,2.29,0,0,1-1.22.34,1.83,1.83,0,0,1-1.07-.32,2.22,2.22,0,0,1-.7-.77v.93H151V41.71h1.39v3a2.18,2.18,0,0,1,.76-.56A2.26,2.26,0,0,1,154.06,43.92Zm-.28,1.37a1.6,1.6,0,0,0-.75.18,2.28,2.28,0,0,0-.64.49v.79a1.57,1.57,0,0,0,.19.86,1.4,1.4,0,0,0,.53.55,1.34,1.34,0,0,0,.7.19,1.26,1.26,0,0,0,1-.43,1.57,1.57,0,0,0,.38-1.06,1.68,1.68,0,0,0-.18-.77,1.45,1.45,0,0,0-.49-.58A1.24,1.24,0,0,0,153.78,45.29Z"/><path class="cls-3" d="M159.74,43.92a2.91,2.91,0,0,1,.95.15,2.26,2.26,0,0,1,.68.35v1.23a3.77,3.77,0,0,0-.64-.34,1.92,1.92,0,0,0-.78-.17,1,1,0,0,0-.62.18.47.47,0,0,0-.1.74,1,1,0,0,0,.5.25l.62.21A1.49,1.49,0,0,1,161.61,48a1.46,1.46,0,0,1-.29.91,1.92,1.92,0,0,1-.77.63,2.58,2.58,0,0,1-1.08.23,3.6,3.6,0,0,1-1.09-.17,3,3,0,0,1-.8-.39V48a3.94,3.94,0,0,0,.51.27,4.44,4.44,0,0,0,.61.22,2.59,2.59,0,0,0,.58.08,1.14,1.14,0,0,0,.64-.15.48.48,0,0,0,.23-.42.39.39,0,0,0-.19-.33,2.46,2.46,0,0,0-.55-.24l-.68-.24a1.58,1.58,0,0,1-.87-.59,1.69,1.69,0,0,1-.24-.91,1.58,1.58,0,0,1,.27-.92,1.77,1.77,0,0,1,.75-.61A2.57,2.57,0,0,1,159.74,43.92Z"/><path class="cls-3" d="M164.77,44.06v5.53h-1.39V45.24h-.89V44.06ZM164,41.18a.94.94,0,1,1-.68,1.6.92.92,0,0,1,0-1.32A.91.91,0,0,1,164,41.18Z"/><path class="cls-3" d="M168.52,42.45v1.61h1.53v1.16h-1.53v2.39a.93.93,0,0,0,.17.58.61.61,0,0,0,.51.21,1.88,1.88,0,0,0,.51-.06,1.62,1.62,0,0,0,.4-.19v1.11a1.82,1.82,0,0,1-.52.35,2,2,0,0,1-.78.14,1.6,1.6,0,0,1-1.21-.48,1.73,1.73,0,0,1-.47-1.3V45.22h-1v-.71a2.36,2.36,0,0,0,1-.7,3.88,3.88,0,0,0,.71-1.36Z"/><path class="cls-3" d="M173.89,43.92a2.62,2.62,0,0,1,1.4.35,2.28,2.28,0,0,1,.9,1,3.06,3.06,0,0,1,.31,1.42v.6h-4a1.47,1.47,0,0,0,.55.89,1.67,1.67,0,0,0,1.07.34,2.5,2.5,0,0,0,1.1-.24,3.73,3.73,0,0,0,.79-.49l0,1.29a3.24,3.24,0,0,1-.78.47,2.83,2.83,0,0,1-1.14.23,3,3,0,0,1-1.5-.37,3,3,0,0,1-1.07-1,2.8,2.8,0,0,1-.4-1.48,3,3,0,0,1,.36-1.47,2.89,2.89,0,0,1,1-1.08A2.53,2.53,0,0,1,173.89,43.92Zm0,1.21a1.24,1.24,0,0,0-.86.32,1.56,1.56,0,0,0-.48.85h2.64a1.15,1.15,0,0,0-.43-.88A1.47,1.47,0,0,0,173.86,45.13Z"/><path class="cls-3" d="M179.55,43.92a3,3,0,0,1,1,.15,2.19,2.19,0,0,1,.67.35v1.23a3.42,3.42,0,0,0-.64-.34,1.92,1.92,0,0,0-.78-.17,1,1,0,0,0-.62.18.48.48,0,0,0-.1.74,1,1,0,0,0,.5.25l.63.21A1.48,1.48,0,0,1,181.42,48a1.46,1.46,0,0,1-.29.91,1.92,1.92,0,0,1-.77.63,2.58,2.58,0,0,1-1.08.23,3.59,3.59,0,0,1-1.08-.17,2.83,2.83,0,0,1-.8-.39V48a3.76,3.76,0,0,0,.5.27,4.44,4.44,0,0,0,.61.22,2.67,2.67,0,0,0,.58.08,1.14,1.14,0,0,0,.64-.15A.48.48,0,0,0,180,48a.37.37,0,0,0-.19-.33,2.27,2.27,0,0,0-.55-.24l-.67-.24a1.57,1.57,0,0,1-.88-.59,1.69,1.69,0,0,1-.24-.91,1.58,1.58,0,0,1,.27-.92,1.91,1.91,0,0,1,.75-.61A2.57,2.57,0,0,1,179.55,43.92Z"/><text class="cls-4" transform="translate(121.22 46.73)">®</text></g></g></svg>